<svg width="1080" height="565" viewBox="0 0 1080 565" fill="none" xmlns="http://www.w3.org/2000/svg">
<rect width="1080" height="565" fill="#FFFFF0"/>
<g clip-path="url(#clip0_2025_2)">
<mask id="mask0_2025_2" style="mask-type:luminance" maskUnits="userSpaceOnUse" x="390" y="132" width="300" height="300">
<path d="M690 132H390V432H690V132Z" fill="white"/>
</mask>
<g mask="url(#mask0_2025_2)">
<path d="M577.45 176.533C571.725 176.533 566.183 177.083 560.858 178.008C554.033 177.142 538.025 176.083 530.933 176.083C460.325 176.083 398.55 202.558 398.55 295.233C398.55 370.533 457.292 431.575 540.017 431.575C622.742 431.575 689.8 370.533 689.8 295.233C689.792 201.492 611.583 176.533 577.45 176.533Z" fill="#EB2A2A"/>
<path d="M460.325 132.758C473.967 146.392 483.409 151.642 487.609 173.675C490.092 186.708 506.492 186.258 506.492 186.258C506.492 186.258 473.967 200.95 460.325 214.592C460.325 214.592 501.242 200.95 514.884 200.95C514.884 200.95 542.159 214.592 542.159 228.225C542.159 228.225 542.159 200.95 528.525 200.95C528.525 200.95 569.434 200.95 569.434 228.225C569.434 228.225 569.434 187.308 555.792 187.308C555.792 187.308 596.717 173.675 610.359 187.308C610.359 187.308 596.309 172.975 569.434 173.675C569.434 173.675 583.084 160.033 610.359 160.033C610.359 160.033 566.292 147.442 552.65 174.725C552.65 174.725 541.109 163.183 564.192 140.1C564.192 140.1 528.525 146.392 528.525 173.675C528.525 173.675 515.592 173.342 506.492 163.183C488.65 143.25 460.325 132.758 460.325 132.758Z" fill="url(#paint0_linear_2025_2)"/>
<path d="M432.025 257.131V263.563H463.225C461.689 278.155 448.537 289.483 427.513 294.955L430.681 301.195C455.833 294.475 471.673 279.115 471.673 257.131H432.025ZM449.209 310.699H489.433V330.187H449.209V310.699ZM441.529 336.523H497.209V304.459H441.529V336.523ZM489.337 251.659V300.331H497.209V251.659H489.337ZM535.985 267.019H556.241V260.491H508.145V267.019H528.113V277.963C528.113 292.843 517.649 309.067 505.265 314.923L509.873 321.259C519.665 316.267 528.113 305.419 532.049 292.843C536.177 304.651 544.625 314.539 554.609 319.147L559.025 312.811C546.353 307.435 535.985 292.555 535.985 277.963V267.019ZM567.857 251.755V337.771H575.729V251.755H567.857ZM657.322 258.955H626.89V250.507H619.018V258.955H588.01V265.099H657.322V258.955ZM622.954 331.819C609.13 331.819 601.45 329.323 601.45 324.619C601.45 319.819 609.13 317.227 622.954 317.227C636.682 317.227 644.266 319.819 644.266 324.619C644.266 329.323 636.682 331.819 622.954 331.819ZM622.954 311.371C604.138 311.371 593.386 315.883 593.386 324.619C593.386 333.163 604.138 337.675 622.954 337.675C641.578 337.675 652.33 333.163 652.33 324.619C652.33 315.883 641.578 311.371 622.954 311.371ZM603.37 280.843C603.37 276.523 610.378 274.123 622.954 274.123C635.338 274.123 642.346 276.523 642.346 280.843C642.346 285.163 635.338 287.563 622.954 287.563C610.378 287.563 603.37 285.163 603.37 280.843ZM626.89 299.755V293.035C642.058 292.459 650.698 288.235 650.698 280.843C650.698 272.683 640.618 268.459 622.954 268.459C605.098 268.459 595.114 272.683 595.114 280.843C595.114 288.235 603.658 292.459 619.018 293.035V299.755H583.978V305.995H661.738V299.755H626.89Z" fill="white"/>
</g>
</g>
<defs>
<linearGradient id="paint0_linear_2025_2" x1="535.342" y1="132.758" x2="535.342" y2="228.225" gradientUnits="userSpaceOnUse">
<stop offset="0.414583" stop-color="#296802"/>
<stop offset="1"/>
</linearGradient>
<clipPath id="clip0_2025_2">
<rect width="300" height="300" fill="white" transform="translate(390 132)"/>
</clipPath>
</defs>
</svg>
