<svg width="3073" height="923" viewBox="0 0 3073 923" fill="none" xmlns="http://www.w3.org/2000/svg">
<g clip-path="url(#clip0_2_26)">
<path d="M1628.88 20.0088C2044.58 15.9888 2459.88 14.7688 2988.36 20.0088M1628.88 20.0088C1974.2 19.0488 2320.6 18.5288 2988.36 20.0088M1628.88 20.0088C1583.6 23.1688 1567 40.3488 1564.88 84.0088M1628.88 20.0088C1587.58 16.1488 1563.46 45.8288 1564.88 84.0088M2988.36 20.0088C3028.1 20.3688 3050.12 41.4688 3052.36 84.0088M2988.36 20.0088C3029 16.9288 3055.38 38.1888 3052.36 84.0088M3052.36 84.0088C3050.58 248.589 3051.92 418.549 3052.36 830.989M3052.36 84.0088C3055.34 369.969 3054.38 655.549 3052.36 830.989M3052.36 830.989C3048.58 876.989 3029.98 891.669 2988.36 894.989M3052.36 830.989C3052.52 878.069 3030.3 891.509 2988.36 894.989M2988.36 894.989C2496.64 898.549 2002.78 898.049 1628.88 894.989M2988.36 894.989C2530.82 895.829 2073.64 894.909 1628.88 894.989M1628.88 894.989C1589.12 891.029 1563.46 876.489 1564.88 830.989M1628.88 894.989C1584.28 890.749 1561.84 870.569 1564.88 830.989M1564.88 830.989C1563.56 578.389 1563.08 321.929 1564.88 84.0088M1564.88 830.989C1561.78 541.749 1563.34 251.089 1564.88 84.0088" stroke="#1E1E1E" stroke-width="8" stroke-linecap="round"/>
<path d="M1667.57 92.694H1685.13V100.398H1667.57V92.694ZM1649.42 76.926H1657.13V86.646C1657.13 90.822 1656.77 94.878 1656.05 98.814C1655.33 102.75 1654.22 106.422 1652.73 109.83C1651.25 113.238 1649.35 116.238 1647.05 118.83C1644.79 121.422 1642.1 123.51 1638.98 125.094L1633.01 117.462C1635.84 116.118 1638.26 114.366 1640.28 112.206C1642.34 110.046 1644.05 107.598 1645.39 104.862C1646.78 102.078 1647.79 99.15 1648.41 96.078C1649.09 92.958 1649.42 89.814 1649.42 86.646V76.926ZM1651.37 76.926H1659V86.646C1659 89.766 1659.31 92.862 1659.93 95.934C1660.56 98.958 1661.49 101.79 1662.74 104.43C1664.04 107.07 1665.69 109.422 1667.71 111.486C1669.73 113.502 1672.13 115.134 1674.91 116.382L1669.15 124.014C1666.03 122.478 1663.34 120.462 1661.09 117.966C1658.83 115.422 1656.98 112.518 1655.54 109.254C1654.15 105.99 1653.09 102.438 1652.37 98.598C1651.7 94.758 1651.37 90.774 1651.37 86.646V76.926ZM1680.31 71.742H1689.89V138.63H1680.31V71.742ZM1746.55 71.742H1756.12V138.63H1746.55V71.742ZM1731.43 95.214H1749.28V102.918H1731.43V95.214ZM1702.63 76.998H1712.13V93.198H1725.23V76.998H1734.67V122.934H1702.63V76.998ZM1712.13 100.614V115.302H1725.23V100.614H1712.13ZM1817.64 88.518H1830.52V96.222H1817.64V88.518ZM1808.13 75.054H1818.07C1818.07 81.198 1817.04 86.646 1814.97 91.398C1812.96 96.15 1809.72 100.254 1805.25 103.71C1800.84 107.166 1795 109.974 1787.76 112.134L1784.08 104.646C1790.13 102.918 1794.88 100.806 1798.34 98.31C1801.84 95.766 1804.34 92.886 1805.83 89.67C1807.36 86.454 1808.13 82.95 1808.13 79.158V75.054ZM1787.54 75.054H1814.32V82.686H1787.54V75.054ZM1809.21 87.366V93.846L1785.45 95.646L1784.16 88.158L1809.21 87.366ZM1829.23 71.814H1838.88V109.902H1829.23V71.814ZM1794.88 112.854H1838.88V137.838H1794.88V112.854ZM1829.44 120.342H1804.32V130.278H1829.44V120.342ZM1863.28 110.694H1872.85V138.558H1863.28V110.694ZM1886.39 110.694H1896.04V138.558H1886.39V110.694ZM1854.64 74.766H1904.39V82.398H1854.64V74.766ZM1855.14 97.158H1903.81V104.718H1855.14V97.158ZM1863.21 81.03H1872.78V101.478H1863.21V81.03ZM1886.32 81.03H1895.89V101.478H1886.32V81.03ZM1849.24 110.19H1909.65V117.966H1849.24V110.19ZM1961.91 71.742H1971.49V138.63H1961.91V71.742ZM1950.46 95.286H1963.06V103.062H1950.46V95.286ZM1918.5 115.878H1923.9C1927.59 115.878 1931 115.83 1934.12 115.734C1937.29 115.638 1940.36 115.47 1943.34 115.23C1946.31 114.99 1949.36 114.654 1952.48 114.222L1953.42 121.782C1950.2 122.31 1947.03 122.694 1943.91 122.934C1940.84 123.174 1937.67 123.342 1934.41 123.438C1931.14 123.534 1927.64 123.582 1923.9 123.582H1918.5V115.878ZM1918.5 77.358H1949.38V85.134H1928.07V118.254H1918.5V77.358ZM1925.84 95.934H1947.15V103.422H1925.84V95.934Z" fill="#1E1E1E"/>
<path d="M2670.04 274.574V186.267H2688.71V222.702H2726.62V186.267H2745.24V274.574H2726.62V238.096H2688.71V274.574H2670.04ZM2757.27 201.66V186.267H2829.8V201.66H2802.76V274.574H2784.31V201.66H2757.27ZM2841.74 186.267H2864.77L2889.09 245.598H2890.12L2914.44 186.267H2937.47V274.574H2919.36V217.097H2918.62L2895.77 274.143H2883.44L2860.59 216.881H2859.85V274.574H2841.74V186.267ZM2952.85 274.574V186.267H2971.52V259.181H3009.38V274.574H2952.85Z" fill="#F08C00"/>
<path d="M2752.56 394.272H2732.85C2732.49 391.722 2731.75 389.457 2730.64 387.477C2729.53 385.467 2728.11 383.757 2726.37 382.347C2724.63 380.937 2722.62 379.857 2720.34 379.107C2718.09 378.357 2715.64 377.982 2713 377.982C2708.23 377.982 2704.08 379.167 2700.54 381.537C2697 383.877 2694.25 387.297 2692.3 391.797C2690.35 396.267 2689.38 401.696 2689.38 408.086C2689.38 414.656 2690.35 420.176 2692.3 424.645C2694.28 429.115 2697.04 432.49 2700.58 434.77C2704.12 437.05 2708.22 438.19 2712.87 438.19C2715.48 438.19 2717.89 437.845 2720.11 437.155C2722.36 436.465 2724.36 435.46 2726.1 434.14C2727.84 432.79 2729.28 431.155 2730.42 429.235C2731.59 427.315 2732.4 425.125 2732.85 422.665L2752.56 422.755C2752.05 426.985 2750.77 431.065 2748.73 434.995C2746.72 438.895 2744.01 442.39 2740.59 445.479C2737.2 448.539 2733.15 450.969 2728.44 452.769C2723.76 454.539 2718.46 455.424 2712.55 455.424C2704.33 455.424 2696.98 453.564 2690.5 449.844C2684.05 446.124 2678.95 440.74 2675.2 433.69C2671.48 426.64 2669.62 418.106 2669.62 408.086C2669.62 398.036 2671.51 389.487 2675.29 382.437C2679.07 375.387 2684.2 370.018 2690.68 366.328C2697.16 362.608 2704.45 360.748 2712.55 360.748C2717.89 360.748 2722.84 361.498 2727.4 362.998C2731.99 364.498 2736.06 366.688 2739.6 369.568C2743.14 372.418 2746.02 375.912 2748.24 380.052C2750.49 384.192 2751.93 388.932 2752.56 394.272ZM2816.52 388.512C2816.16 384.882 2814.62 382.062 2811.89 380.052C2809.16 378.042 2805.45 377.037 2800.77 377.037C2797.59 377.037 2794.91 377.487 2792.72 378.387C2790.53 379.257 2788.85 380.472 2787.68 382.032C2786.54 383.592 2785.97 385.362 2785.97 387.342C2785.91 388.992 2786.25 390.432 2787 391.662C2787.78 392.892 2788.85 393.957 2790.2 394.857C2791.55 395.727 2793.11 396.492 2794.88 397.152C2796.65 397.781 2798.54 398.321 2800.55 398.771L2808.83 400.751C2812.85 401.651 2816.54 402.851 2819.9 404.351C2823.25 405.851 2826.16 407.696 2828.62 409.886C2831.08 412.076 2832.99 414.656 2834.34 417.626C2835.72 420.596 2836.42 424 2836.45 427.84C2836.42 433.48 2834.98 438.37 2832.13 442.51C2829.31 446.619 2825.23 449.814 2819.9 452.094C2814.59 454.344 2808.18 455.469 2800.68 455.469C2793.24 455.469 2786.76 454.329 2781.24 452.049C2775.75 449.769 2771.46 446.394 2768.37 441.925C2765.31 437.425 2763.71 431.86 2763.56 425.23H2782.41C2782.62 428.32 2783.51 430.9 2785.07 432.97C2786.66 435.01 2788.77 436.555 2791.41 437.605C2794.08 438.625 2797.1 439.135 2800.46 439.135C2803.76 439.135 2806.62 438.655 2809.05 437.695C2811.51 436.735 2813.42 435.4 2814.77 433.69C2816.12 431.98 2816.79 430.015 2816.79 427.795C2816.79 425.725 2816.18 423.985 2814.95 422.575C2813.75 421.165 2811.98 419.966 2809.64 418.976C2807.33 417.986 2804.49 417.086 2801.13 416.276L2791.1 413.756C2783.33 411.866 2777.19 408.911 2772.69 404.891C2768.19 400.871 2765.96 395.457 2765.99 388.647C2765.96 383.067 2767.44 378.192 2770.44 374.023C2773.47 369.853 2777.63 366.598 2782.91 364.258C2788.19 361.918 2794.19 360.748 2800.91 360.748C2807.75 360.748 2813.72 361.918 2818.82 364.258C2823.94 366.598 2827.93 369.853 2830.78 374.023C2833.63 378.192 2835.1 383.022 2835.19 388.512H2816.52ZM2899.55 388.512C2899.19 384.882 2897.65 382.062 2894.92 380.052C2892.19 378.042 2888.48 377.037 2883.8 377.037C2880.62 377.037 2877.94 377.487 2875.75 378.387C2873.56 379.257 2871.88 380.472 2870.71 382.032C2869.57 383.592 2869 385.362 2869 387.342C2868.94 388.992 2869.28 390.432 2870.03 391.662C2870.81 392.892 2871.88 393.957 2873.23 394.857C2874.58 395.727 2876.14 396.492 2877.91 397.152C2879.68 397.781 2881.57 398.321 2883.58 398.771L2891.86 400.751C2895.88 401.651 2899.57 402.851 2902.93 404.351C2906.29 405.851 2909.2 407.696 2911.66 409.886C2914.12 412.076 2916.02 414.656 2917.37 417.626C2918.75 420.596 2919.46 424 2919.49 427.84C2919.46 433.48 2918.02 438.37 2915.17 442.51C2912.35 446.619 2908.27 449.814 2902.93 452.094C2897.62 454.344 2891.21 455.469 2883.71 455.469C2876.27 455.469 2869.79 454.329 2864.27 452.049C2858.78 449.769 2854.49 446.394 2851.41 441.925C2848.35 437.425 2846.74 431.86 2846.59 425.23H2865.44C2865.65 428.32 2866.54 430.9 2868.1 432.97C2869.69 435.01 2871.8 436.555 2874.44 437.605C2877.11 438.625 2880.13 439.135 2883.49 439.135C2886.79 439.135 2889.65 438.655 2892.08 437.695C2894.54 436.735 2896.45 435.4 2897.8 433.69C2899.15 431.98 2899.82 430.015 2899.82 427.795C2899.82 425.725 2899.21 423.985 2897.98 422.575C2896.78 421.165 2895.01 419.966 2892.67 418.976C2890.36 417.986 2887.52 417.086 2884.16 416.276L2874.13 413.756C2866.36 411.866 2860.22 408.911 2855.72 404.891C2851.23 400.871 2848.99 395.457 2849.02 388.647C2848.99 383.067 2850.48 378.192 2853.47 374.023C2856.5 369.853 2860.66 366.598 2865.94 364.258C2871.22 361.918 2877.22 360.748 2883.94 360.748C2890.78 360.748 2896.75 361.918 2901.85 364.258C2906.98 366.598 2910.97 369.853 2913.82 374.023C2916.67 378.192 2918.14 383.022 2918.23 388.512H2899.55Z" fill="#1971C2"/>
<path d="M2718.09 559.671H2737.83V625.52C2737.83 631.607 2736.46 636.895 2733.72 641.383C2731.02 645.872 2727.25 649.33 2722.42 651.759C2717.6 654.187 2711.99 655.402 2705.59 655.402C2699.91 655.402 2694.74 654.403 2690.1 652.404C2685.49 650.375 2681.83 647.301 2679.12 643.182C2676.42 639.032 2675.08 633.821 2675.11 627.549H2694.99C2695.05 630.039 2695.56 632.176 2696.51 633.959C2697.49 635.711 2698.83 637.064 2700.52 638.017C2702.24 638.939 2704.27 639.4 2706.61 639.4C2709.07 639.4 2711.14 638.878 2712.83 637.833C2714.55 636.757 2715.86 635.189 2716.75 633.129C2717.64 631.069 2718.09 628.533 2718.09 625.52V559.671ZM2805.57 586.831C2805.2 583.112 2803.61 580.222 2800.82 578.162C2798.02 576.102 2794.22 575.073 2789.43 575.073C2786.17 575.073 2783.42 575.534 2781.17 576.456C2778.93 577.347 2777.21 578.593 2776.01 580.191C2774.84 581.79 2774.26 583.603 2774.26 585.632C2774.19 587.323 2774.55 588.799 2775.32 590.059C2776.12 591.32 2777.21 592.411 2778.59 593.333C2779.97 594.225 2781.57 595.009 2783.39 595.685C2785.2 596.331 2787.14 596.884 2789.2 597.345L2797.68 599.374C2801.8 600.296 2805.58 601.526 2809.03 603.063C2812.47 604.6 2815.45 606.491 2817.97 608.735C2820.49 610.979 2822.44 613.623 2823.83 616.667C2825.24 619.71 2825.96 623.199 2826 627.134C2825.96 632.914 2824.49 637.925 2821.57 642.167C2818.68 646.379 2814.5 649.653 2809.03 651.989C2803.58 654.295 2797.02 655.448 2789.34 655.448C2781.71 655.448 2775.07 654.28 2769.41 651.943C2763.79 649.607 2759.39 646.148 2756.23 641.568C2753.09 636.956 2751.45 631.254 2751.29 624.46H2770.61C2770.83 627.626 2771.74 630.27 2773.33 632.391C2774.96 634.482 2777.13 636.065 2779.84 637.141C2782.57 638.186 2785.66 638.709 2789.1 638.709C2792.49 638.709 2795.42 638.217 2797.91 637.233C2800.43 636.249 2802.39 634.881 2803.77 633.129C2805.15 631.377 2805.84 629.363 2805.84 627.088C2805.84 624.967 2805.21 623.184 2803.95 621.739C2802.72 620.294 2800.91 619.065 2798.51 618.05C2796.14 617.036 2793.24 616.113 2789.8 615.283L2779.51 612.701C2771.55 610.764 2765.26 607.736 2760.65 603.617C2756.04 599.497 2753.75 593.948 2753.78 586.97C2753.75 581.252 2755.27 576.256 2758.35 571.983C2761.45 567.71 2765.71 564.374 2771.12 561.976C2776.53 559.579 2782.68 558.38 2789.57 558.38C2796.58 558.38 2802.69 559.579 2807.92 561.976C2813.18 564.374 2817.26 567.71 2820.18 571.983C2823.11 576.256 2824.61 581.206 2824.7 586.831H2805.57Z" fill="#FFEA00"/>
<path d="M1705.39 308.179C1881.95 305.699 2058.45 303.019 2218.05 308.179M1705.39 308.179C1842.79 303.399 1979.53 305.599 2218.05 308.179M1705.39 308.179C1662.33 305.339 1637.39 329.199 1641.39 372.179M1705.39 308.179C1666.45 306.779 1642.31 331.759 1641.39 372.179M2218.05 308.179C2256.79 310.579 2285.17 326.239 2282.05 372.179M2218.05 308.179C2256.87 306.159 2278.69 332.779 2282.05 372.179M2282.05 372.179C2284.69 410.519 2283.21 451.519 2282.05 511.039M2282.05 372.179C2279.83 416.679 2281.13 456.839 2282.05 511.039M2282.05 511.039C2284.25 552.319 2258.69 574.899 2218.05 575.039M2282.05 511.039C2282.59 552.419 2262.25 571.659 2218.05 575.039M2218.05 575.039C2065.13 573.559 1910.35 571.919 1705.39 575.039M2218.05 575.039C2056.71 573.159 1895.33 573.739 1705.39 575.039M1705.39 575.039C1661.65 573.619 1643.81 556.639 1641.39 511.039M1705.39 575.039C1664.43 575.779 1637.73 552.219 1641.39 511.039M1641.39 511.039C1639.09 461.579 1640.99 410.719 1641.39 372.179M1641.39 511.039C1642.89 459.579 1640.77 406.119 1641.39 372.179" stroke="#1E1E1E" stroke-width="8" stroke-linecap="round"/>
<path d="M1738.28 403.463H1747.35V444.431H1738.28V403.463ZM1725.53 404.615H1734.46V444.287H1725.53V404.615ZM1715.74 436.007H1729.13V442.271H1715.74V436.007ZM1702.28 431.327H1711.42V444.071H1702.28V431.327ZM1690.11 435.215L1689.25 428.087C1691.41 428.087 1693.85 428.087 1696.59 428.087C1699.37 428.039 1702.28 427.967 1705.3 427.871C1708.33 427.727 1711.33 427.535 1714.3 427.295C1717.33 427.055 1720.18 426.719 1722.87 426.287L1723.52 432.623C1719.87 433.439 1716.01 434.039 1711.93 434.423C1707.89 434.759 1703.96 434.975 1700.12 435.071C1696.33 435.167 1692.99 435.215 1690.11 435.215ZM1699.9 446.591H1709.41V450.983H1737.92V446.591H1747.35V469.415H1699.9V446.591ZM1709.41 458.039V461.999H1737.92V458.039H1709.41ZM1706.53 405.623C1710.89 405.623 1714.42 406.535 1717.11 408.359C1719.8 410.183 1721.14 412.607 1721.14 415.631C1721.14 418.655 1719.8 421.079 1717.11 422.903C1714.42 424.727 1710.89 425.639 1706.53 425.639C1702.21 425.639 1698.7 424.727 1696.01 422.903C1693.33 421.079 1691.98 418.655 1691.98 415.631C1691.98 412.607 1693.33 410.183 1696.01 408.359C1698.7 406.535 1702.21 405.623 1706.53 405.623ZM1706.53 412.175C1704.7 412.175 1703.24 412.463 1702.13 413.039C1701.03 413.615 1700.48 414.479 1700.48 415.631C1700.48 416.783 1701.03 417.647 1702.13 418.223C1703.24 418.799 1704.7 419.087 1706.53 419.087C1708.35 419.087 1709.81 418.799 1710.92 418.223C1712.02 417.647 1712.57 416.783 1712.57 415.631C1712.57 414.479 1712.02 413.615 1710.92 413.039C1709.81 412.463 1708.35 412.175 1706.53 412.175ZM1789.54 424.271H1807.1V431.975H1789.54V424.271ZM1771.39 408.503H1779.1V418.223C1779.1 422.399 1778.74 426.455 1778.02 430.391C1777.3 434.327 1776.19 437.999 1774.7 441.407C1773.22 444.815 1771.32 447.815 1769.02 450.407C1766.76 452.999 1764.07 455.087 1760.95 456.671L1754.98 449.039C1757.81 447.695 1760.23 445.943 1762.25 443.783C1764.31 441.623 1766.02 439.175 1767.36 436.439C1768.75 433.655 1769.76 430.727 1770.38 427.655C1771.06 424.535 1771.39 421.391 1771.39 418.223V408.503ZM1773.34 408.503H1780.97V418.223C1780.97 421.343 1781.28 424.439 1781.9 427.511C1782.53 430.535 1783.46 433.367 1784.71 436.007C1786.01 438.647 1787.66 440.999 1789.68 443.063C1791.7 445.079 1794.1 446.711 1796.88 447.959L1791.12 455.591C1788 454.055 1785.31 452.039 1783.06 449.543C1780.8 446.999 1778.95 444.095 1777.51 440.831C1776.12 437.567 1775.06 434.015 1774.34 430.175C1773.67 426.335 1773.34 422.351 1773.34 418.223V408.503ZM1802.28 403.319H1811.86V470.207H1802.28V403.319ZM1868.52 403.319H1878.09V470.207H1868.52V403.319ZM1853.4 426.791H1871.25V434.495H1853.4V426.791ZM1824.6 408.575H1834.1V424.775H1847.2V408.575H1856.64V454.511H1824.6V408.575ZM1834.1 432.191V446.879H1847.2V432.191H1834.1ZM1905.05 454.511H1965.45V462.287H1905.05V454.511ZM1930.1 439.679H1939.68V456.599H1930.1V439.679ZM1929.81 407.135H1938.17V411.959C1938.17 414.791 1937.76 417.527 1936.94 420.167C1936.17 422.807 1935 425.303 1933.41 427.655C1931.88 430.007 1929.98 432.143 1927.73 434.063C1925.47 435.935 1922.88 437.543 1919.95 438.887C1917.07 440.231 1913.88 441.215 1910.37 441.839L1906.41 433.847C1909.49 433.367 1912.25 432.599 1914.69 431.543C1917.14 430.487 1919.3 429.239 1921.17 427.799C1923.09 426.311 1924.68 424.703 1925.93 422.975C1927.22 421.199 1928.18 419.375 1928.81 417.503C1929.48 415.631 1929.81 413.783 1929.81 411.959V407.135ZM1931.61 407.135H1940.04V411.959C1940.04 413.831 1940.35 415.703 1940.97 417.575C1941.65 419.447 1942.61 421.247 1943.85 422.975C1945.15 424.703 1946.73 426.311 1948.61 427.799C1950.48 429.239 1952.64 430.487 1955.09 431.543C1957.58 432.599 1960.34 433.367 1963.37 433.847L1959.41 441.839C1955.9 441.167 1952.71 440.183 1949.83 438.887C1946.95 437.543 1944.38 435.935 1942.13 434.063C1939.87 432.191 1937.95 430.103 1936.37 427.799C1934.83 425.447 1933.65 422.951 1932.84 420.311C1932.02 417.623 1931.61 414.839 1931.61 411.959V407.135ZM1971.28 454.583H2031.69V462.431H1971.28V454.583ZM1975.89 409.151H2026.72V416.855H1975.89V409.151ZM1976.25 436.799H2026.5V444.431H1976.25V436.799ZM1984.96 416.279H1994.54V437.519H1984.96V416.279ZM2008.07 416.279H2017.65V437.519H2008.07V416.279ZM2044.57 437.735H2091.44V445.295H2044.57V437.735ZM2037.51 454.727H2097.92V462.503H2037.51V454.727ZM2044.57 408.287H2090.94V415.919H2054.29V439.823H2044.57V408.287ZM2051.34 422.975H2089.43V430.391H2051.34V422.975ZM2120.24 407.135C2123.12 407.135 2125.66 407.687 2127.87 408.791C2130.08 409.847 2131.8 411.335 2133.05 413.255C2134.35 415.127 2135 417.311 2135 419.807C2135 422.255 2134.35 424.439 2133.05 426.359C2131.8 428.231 2130.08 429.719 2127.87 430.823C2125.66 431.879 2123.12 432.407 2120.24 432.407C2117.4 432.407 2114.88 431.879 2112.68 430.823C2110.47 429.767 2108.72 428.279 2107.42 426.359C2106.12 424.439 2105.48 422.255 2105.48 419.807C2105.48 417.311 2106.12 415.127 2107.42 413.255C2108.72 411.335 2110.47 409.847 2112.68 408.791C2114.88 407.687 2117.4 407.135 2120.24 407.135ZM2120.24 414.263C2119.04 414.263 2117.96 414.479 2117 414.911C2116.04 415.343 2115.29 415.967 2114.76 416.783C2114.24 417.599 2113.97 418.607 2113.97 419.807C2113.97 420.959 2114.24 421.943 2114.76 422.759C2115.29 423.575 2116.04 424.223 2117 424.703C2117.96 425.135 2119.04 425.351 2120.24 425.351C2121.48 425.351 2122.56 425.135 2123.48 424.703C2124.44 424.223 2125.18 423.575 2125.71 422.759C2126.28 421.943 2126.57 420.959 2126.57 419.807C2126.57 418.607 2126.28 417.599 2125.71 416.783C2125.18 415.967 2124.44 415.343 2123.48 414.911C2122.56 414.479 2121.48 414.263 2120.24 414.263ZM2152.92 403.463H2162.07V470.135H2152.92V403.463ZM2139.68 404.543H2148.6V467.111H2139.68V404.543ZM2129.16 446.303H2142.56V453.575H2129.16V446.303ZM2115.63 439.679H2124.7V464.951H2115.63V439.679ZM2103.75 443.711L2102.67 435.935C2104.92 435.935 2107.44 435.935 2110.23 435.935C2113.01 435.887 2115.92 435.815 2118.94 435.719C2121.96 435.575 2124.96 435.407 2127.94 435.215C2130.92 434.975 2133.7 434.687 2136.29 434.351L2137.01 441.335C2133.41 442.055 2129.6 442.583 2125.56 442.919C2121.53 443.207 2117.62 443.423 2113.83 443.567C2110.04 443.663 2106.68 443.711 2103.75 443.711ZM2188.2 407.999C2191.51 407.999 2194.46 408.983 2197.06 410.951C2199.7 412.871 2201.74 415.631 2203.18 419.231C2204.66 422.783 2205.41 426.983 2205.41 431.831C2205.41 436.727 2204.66 440.975 2203.18 444.575C2201.74 448.127 2199.7 450.887 2197.06 452.855C2194.46 454.775 2191.51 455.735 2188.2 455.735C2184.89 455.735 2181.94 454.775 2179.34 452.855C2176.75 450.887 2174.71 448.127 2173.22 444.575C2171.74 440.975 2170.99 436.727 2170.99 431.831C2170.99 426.983 2171.74 422.783 2173.22 419.231C2174.71 415.631 2176.75 412.871 2179.34 410.951C2181.94 408.983 2184.89 407.999 2188.2 407.999ZM2188.2 416.711C2186.62 416.711 2185.2 417.287 2183.95 418.439C2182.75 419.591 2181.82 421.295 2181.14 423.551C2180.47 425.759 2180.14 428.519 2180.14 431.831C2180.14 435.095 2180.47 437.879 2181.14 440.183C2181.82 442.439 2182.75 444.143 2183.95 445.295C2185.2 446.447 2186.62 447.023 2188.2 447.023C2189.88 447.023 2191.32 446.447 2192.52 445.295C2193.72 444.143 2194.66 442.439 2195.33 440.183C2196 437.879 2196.34 435.095 2196.34 431.831C2196.34 428.519 2196 425.759 2195.33 423.551C2194.66 421.295 2193.72 419.591 2192.52 418.439C2191.32 417.287 2189.88 416.711 2188.2 416.711ZM2216.35 403.319H2225.93V470.207H2216.35V403.319ZM2202.6 427.439H2220.38V435.071H2202.6V427.439Z" fill="#1E1E1E"/>
<path d="M84.0002 20.0001C267.58 17.3801 447.78 18.5001 911.94 20.0001M84.0002 20.0001C301.72 21.0001 520.32 21.2201 911.94 20.0001M84.0002 20.0001C38.6402 19.6001 16.5802 44.1001 20.0002 84.0001M84.0002 20.0001C38.0002 17.7801 22.7602 45.2601 20.0002 84.0001M911.94 20.0001C954.46 19.6401 973 43.1801 975.94 84.0001M911.94 20.0001C953.5 22.7801 977.88 43.2001 975.94 84.0001M975.94 84.0001C979.82 261.4 978.54 436.46 975.94 838.28M975.94 84.0001C976.62 370.06 976.86 657.92 975.94 838.28M975.94 838.28C977.74 880.28 951.72 901.64 911.94 902.28M975.94 838.28C974.92 882.26 953.1 897.98 911.94 902.28M911.94 902.28C674.6 900.88 432.8 900.98 84.0002 902.28M911.94 902.28C746.12 904.28 578.66 904.22 84.0002 902.28M84.0002 902.28C42.3602 904.44 21.7202 881.18 20.0002 838.28M84.0002 902.28C37.3402 899.28 23.9402 883.72 20.0002 838.28M20.0002 838.28C18.3802 582.64 20.2202 323.86 20.0002 84.0001M20.0002 838.28C23.9202 613.34 23.6002 388.22 20.0002 84.0001" stroke="#1971C2" stroke-width="8" stroke-linecap="round"/>
<path d="M118.877 90.3356H127.949V131.304H118.877V90.3356ZM106.133 91.4876H115.061V131.16H106.133V91.4876ZM96.3407 122.88H109.733V129.144H96.3407V122.88ZM82.8767 118.2H92.0207V130.944H82.8767V118.2ZM70.7087 122.088L69.8447 114.96C72.0047 114.96 74.4527 114.96 77.1887 114.96C79.9727 114.912 82.8767 114.84 85.9007 114.744C88.9247 114.6 91.9247 114.408 94.9007 114.168C97.9247 113.928 100.781 113.592 103.469 113.16L104.117 119.496C100.469 120.312 96.6047 120.912 92.5247 121.296C88.4927 121.632 84.5567 121.848 80.7167 121.944C76.9247 122.04 73.5887 122.088 70.7087 122.088ZM80.5007 133.464H90.0047V137.856H118.517V133.464H127.949V156.288H80.5007V133.464ZM90.0047 144.912V148.872H118.517V144.912H90.0047ZM87.1247 92.4956C91.4927 92.4956 95.0207 93.4076 97.7087 95.2316C100.397 97.0556 101.741 99.4796 101.741 102.504C101.741 105.528 100.397 107.952 97.7087 109.776C95.0207 111.6 91.4927 112.512 87.1247 112.512C82.8047 112.512 79.3007 111.6 76.6127 109.776C73.9247 107.952 72.5807 105.528 72.5807 102.504C72.5807 99.4796 73.9247 97.0556 76.6127 95.2316C79.3007 93.4076 82.8047 92.4956 87.1247 92.4956ZM87.1247 99.0476C85.3007 99.0476 83.8367 99.3356 82.7327 99.9116C81.6287 100.488 81.0767 101.352 81.0767 102.504C81.0767 103.656 81.6287 104.52 82.7327 105.096C83.8367 105.672 85.3007 105.96 87.1247 105.96C88.9487 105.96 90.4127 105.672 91.5167 105.096C92.6207 104.52 93.1727 103.656 93.1727 102.504C93.1727 101.352 92.6207 100.488 91.5167 99.9116C90.4127 99.3356 88.9487 99.0476 87.1247 99.0476ZM153.175 141.24H213.583V149.088H153.175V141.24ZM159.511 94.5836H169.087V105.384H197.455V94.5836H206.959V130.224H159.511V94.5836ZM169.087 112.872V122.592H197.455V112.872H169.087ZM262.106 90.1916H271.682V157.08H262.106V90.1916ZM269.522 115.464H281.258V123.312H269.522V115.464ZM222.146 133.752H227.69C231.482 133.752 235.034 133.704 238.346 133.608C241.658 133.512 244.874 133.32 247.994 133.032C251.162 132.696 254.378 132.264 257.642 131.736L258.506 139.44C255.146 140.016 251.834 140.472 248.57 140.808C245.354 141.096 242.042 141.312 238.634 141.456C235.226 141.6 231.578 141.672 227.69 141.672H222.146V133.752ZM222.002 95.8796H252.674V121.728H231.578V136.776H222.146V114.168H243.17V103.584H222.002V95.8796ZM285.644 127.56H345.98V135.264H285.644V127.56ZM310.772 132.6H320.348V157.008H310.772V132.6ZM315.668 92.5676C320.42 92.5676 324.596 93.1916 328.196 94.4396C331.844 95.6396 334.676 97.3676 336.692 99.6236C338.708 101.88 339.716 104.52 339.716 107.544C339.716 110.616 338.708 113.28 336.692 115.536C334.676 117.744 331.844 119.472 328.196 120.72C324.596 121.92 320.42 122.52 315.668 122.52C310.916 122.52 306.716 121.92 303.068 120.72C299.468 119.472 296.636 117.744 294.572 115.536C292.556 113.28 291.548 110.616 291.548 107.544C291.548 104.52 292.556 101.88 294.572 99.6236C296.636 97.3676 299.468 95.6396 303.068 94.4396C306.716 93.1916 310.916 92.5676 315.668 92.5676ZM315.596 100.128C312.716 100.128 310.196 100.416 308.036 100.992C305.924 101.568 304.292 102.408 303.14 103.512C301.988 104.568 301.412 105.912 301.412 107.544C301.412 109.128 301.988 110.472 303.14 111.576C304.292 112.68 305.924 113.52 308.036 114.096C310.196 114.624 312.716 114.888 315.596 114.888C318.572 114.888 321.116 114.624 323.228 114.096C325.34 113.52 326.972 112.68 328.124 111.576C329.324 110.472 329.924 109.128 329.924 107.544C329.924 105.912 329.324 104.568 328.124 103.512C326.972 102.408 325.34 101.568 323.228 100.992C321.116 100.416 318.572 100.128 315.596 100.128ZM398.246 90.1916H407.822V157.08H398.246V90.1916ZM386.582 113.52H400.478V121.224H386.582V113.52ZM367.214 100.776H374.846V106.752C374.846 110.784 374.462 114.744 373.694 118.632C372.926 122.52 371.774 126.144 370.238 129.504C368.75 132.864 366.854 135.84 364.55 138.432C362.246 141.024 359.558 143.112 356.486 144.696L350.87 137.136C353.654 135.84 356.078 134.112 358.142 131.952C360.206 129.744 361.91 127.296 363.254 124.608C364.598 121.872 365.582 118.992 366.206 115.968C366.878 112.896 367.214 109.824 367.214 106.752V100.776ZM369.446 100.776H376.934V106.752C376.934 109.68 377.246 112.608 377.87 115.536C378.542 118.416 379.55 121.176 380.894 123.816C382.286 126.408 384.014 128.736 386.078 130.8C388.142 132.864 390.566 134.544 393.35 135.84L387.806 143.328C384.638 141.84 381.902 139.848 379.598 137.352C377.294 134.856 375.398 132 373.91 128.784C372.422 125.52 371.294 122.016 370.526 118.272C369.806 114.528 369.446 110.688 369.446 106.752V100.776ZM353.534 96.6716H390.614V104.376H353.534V96.6716Z" fill="#1971C2"/>
<path d="M2622.92 267.201C2569.76 296.301 2358.58 415.141 2305.44 445.081M2620.16 271.761C2566.48 301.101 2355.12 419.601 2303.22 448.141" stroke="#1E1E1E" stroke-width="8" stroke-linecap="round"/>
<path d="M2335.98 410.361C2321.92 423.501 2311.78 435.301 2303.22 448.141ZM2335.98 410.361C2322.86 425.141 2311.22 438.921 2303.22 448.141Z" stroke="#1E1E1E" stroke-width="8" stroke-linecap="round"/>
<path d="M2352.6 440.261C2332.1 442.261 2315.74 442.881 2303.22 448.141ZM2352.6 440.261C2333.06 443.861 2315.26 446.541 2303.22 448.141Z" stroke="#1E1E1E" stroke-width="8" stroke-linecap="round"/>
<path d="M1000.75 375.403C1103.49 375.903 1514.31 380.243 1616.97 380.963M998.254 379.703C1100.59 379.403 1512.09 376.703 1614.87 377.063" stroke="#2F9E44" stroke-width="8" stroke-linecap="round"/>
<path d="M1567.93 394.282C1580.23 387.842 1599.55 381.923 1614.87 377.062ZM1567.93 394.282C1580.47 390.202 1594.59 384.443 1614.87 377.062Z" stroke="#2F9E44" stroke-width="8" stroke-linecap="round"/>
<path d="M1567.85 360.062C1580.29 364.762 1599.65 369.963 1614.87 377.062ZM1567.85 360.062C1580.17 365.403 1594.29 369.042 1614.87 377.062Z" stroke="#2F9E44" stroke-width="8" stroke-linecap="round"/>
<path d="M1616.03 516.99C1513.25 517.43 1104.83 520.49 1001.85 521.61M1619.61 521.55C1516.63 522.29 1103.73 524.63 1000.97 524.33" stroke="#2F9E44" stroke-width="8" stroke-linecap="round"/>
<path d="M1047.91 507.13C1030.09 515.81 1015.27 515.45 1000.97 524.33ZM1047.91 507.13C1032.61 514.77 1014.09 520.41 1000.97 524.33Z" stroke="#2F9E44" stroke-width="8" stroke-linecap="round"/>
<path d="M1047.99 541.35C1030.05 538.51 1015.19 526.65 1000.97 524.33ZM1047.99 541.35C1032.69 536.65 1014.13 529.95 1000.97 524.33Z" stroke="#2F9E44" stroke-width="8" stroke-linecap="round"/>
<path d="M1083.03 294.095H1092.61V312.743H1083.03V294.095ZM1107.22 294.095H1116.8V312.743H1107.22V294.095ZM1069.78 311.375H1130.19V319.151H1069.78V311.375ZM1099.88 263.495C1104.68 263.495 1108.95 264.239 1112.69 265.727C1116.49 267.215 1119.44 269.303 1121.55 271.991C1123.71 274.631 1124.79 277.775 1124.79 281.423C1124.79 285.023 1123.71 288.167 1121.55 290.855C1119.44 293.495 1116.49 295.559 1112.69 297.047C1108.95 298.535 1104.68 299.279 1099.88 299.279C1095.13 299.279 1090.85 298.535 1087.06 297.047C1083.32 295.559 1080.37 293.495 1078.21 290.855C1076.05 288.167 1074.97 285.023 1074.97 281.423C1074.97 277.775 1076.05 274.631 1078.21 271.991C1080.37 269.303 1083.32 267.215 1087.06 265.727C1090.85 264.239 1095.13 263.495 1099.88 263.495ZM1099.88 270.911C1096.81 270.911 1094.09 271.343 1091.74 272.207C1089.44 273.023 1087.64 274.199 1086.34 275.735C1085.05 277.271 1084.4 279.167 1084.4 281.423C1084.4 283.583 1085.05 285.455 1086.34 287.039C1087.64 288.575 1089.44 289.775 1091.74 290.639C1094.09 291.455 1096.81 291.863 1099.88 291.863C1103 291.863 1105.71 291.455 1108.01 290.639C1110.37 289.775 1112.17 288.575 1113.41 287.039C1114.71 285.455 1115.36 283.583 1115.36 281.423C1115.36 279.167 1114.71 277.271 1113.41 275.735C1112.17 274.199 1110.37 273.023 1108.01 272.207C1105.71 271.343 1103 270.911 1099.88 270.911ZM1150.92 271.919H1158.7V274.295C1158.7 278.183 1158.02 281.855 1156.68 285.311C1155.34 288.767 1153.27 291.767 1150.49 294.311C1147.75 296.855 1144.27 298.751 1140.05 299.999L1135.51 292.583C1139.11 291.527 1142.04 290.063 1144.3 288.191C1146.6 286.271 1148.28 284.111 1149.34 281.711C1150.39 279.263 1150.92 276.791 1150.92 274.295V271.919ZM1152.72 271.919H1160.5V274.295C1160.5 276.023 1160.78 277.727 1161.36 279.407C1161.98 281.087 1162.92 282.671 1164.17 284.159C1165.46 285.647 1167.1 286.967 1169.06 288.119C1171.03 289.271 1173.34 290.207 1175.98 290.927L1171.66 298.415C1167.43 297.263 1163.9 295.511 1161.07 293.159C1158.29 290.759 1156.2 287.927 1154.81 284.663C1153.42 281.399 1152.72 277.943 1152.72 274.295V271.919ZM1137.82 267.095H1173.67V274.655H1137.82V267.095ZM1150.92 259.967H1160.5V270.119H1150.92V259.967ZM1171.8 277.967H1184.47V285.671H1171.8V277.967ZM1182.17 260.255H1191.82V300.503H1182.17V260.255ZM1169.21 301.583C1176.26 301.583 1181.83 302.687 1185.91 304.895C1189.99 307.103 1192.03 310.223 1192.03 314.255C1192.03 318.239 1189.99 321.335 1185.91 323.543C1181.83 325.799 1176.26 326.927 1169.21 326.927C1162.15 326.927 1156.58 325.799 1152.5 323.543C1148.42 321.335 1146.38 318.239 1146.38 314.255C1146.38 310.223 1148.42 307.103 1152.5 304.895C1156.58 302.687 1162.15 301.583 1169.21 301.583ZM1169.21 308.927C1166.33 308.927 1163.88 309.119 1161.86 309.503C1159.9 309.887 1158.41 310.487 1157.4 311.303C1156.39 312.071 1155.89 313.055 1155.89 314.255C1155.89 315.407 1156.39 316.391 1157.4 317.207C1158.41 318.023 1159.9 318.623 1161.86 319.007C1163.88 319.391 1166.33 319.583 1169.21 319.583C1172.14 319.583 1174.58 319.391 1176.55 319.007C1178.52 318.623 1179.98 318.023 1180.94 317.207C1181.95 316.391 1182.46 315.407 1182.46 314.255C1182.46 313.055 1181.95 312.071 1180.94 311.303C1179.98 310.487 1178.52 309.887 1176.55 309.503C1174.58 309.119 1172.14 308.927 1169.21 308.927ZM1243.12 265.7L1226.24 328.394H1216.86L1233.73 265.7H1243.12ZM1259.26 297.814V320.519H1248.36V268.155H1258.95V288.175H1259.41C1260.3 285.857 1261.73 284.041 1263.71 282.729C1265.68 281.399 1268.16 280.734 1271.15 280.734C1273.87 280.734 1276.25 281.331 1278.28 282.524C1280.32 283.7 1281.91 285.396 1283.04 287.612C1284.18 289.811 1284.74 292.445 1284.72 295.513V320.519H1273.83V297.456C1273.85 295.036 1273.23 293.152 1271.99 291.805C1270.76 290.459 1269.04 289.786 1266.82 289.786C1265.34 289.786 1264.03 290.101 1262.89 290.732C1261.76 291.362 1260.88 292.283 1260.23 293.493C1259.6 294.686 1259.27 296.127 1259.26 297.814ZM1293.29 320.519V281.246H1304.19V320.519H1293.29ZM1298.77 276.183C1297.15 276.183 1295.76 275.646 1294.6 274.573C1293.46 273.482 1292.89 272.178 1292.89 270.661C1292.89 269.161 1293.46 267.874 1294.6 266.8C1295.76 265.709 1297.15 265.163 1298.77 265.163C1300.39 265.163 1301.77 265.709 1302.91 266.8C1304.07 267.874 1304.65 269.161 1304.65 270.661C1304.65 272.178 1304.07 273.482 1302.91 274.573C1301.77 275.646 1300.39 276.183 1298.77 276.183ZM1319.28 321.183C1317.59 321.183 1316.14 320.587 1314.93 319.394C1313.74 318.183 1313.14 316.734 1313.14 315.047C1313.14 313.377 1313.74 311.945 1314.93 310.752C1316.14 309.558 1317.59 308.962 1319.28 308.962C1320.91 308.962 1322.35 309.558 1323.57 310.752C1324.8 311.945 1325.41 313.377 1325.41 315.047C1325.41 316.172 1325.12 317.203 1324.55 318.141C1323.98 319.061 1323.24 319.803 1322.32 320.365C1321.4 320.911 1320.39 321.183 1319.28 321.183ZM1345.25 297.814V320.519H1334.36V268.155H1344.94V288.175H1345.4C1346.29 285.857 1347.72 284.041 1349.7 282.729C1351.68 281.399 1354.16 280.734 1357.14 280.734C1359.87 280.734 1362.24 281.331 1364.27 282.524C1366.32 283.7 1367.9 285.396 1369.03 287.612C1370.17 289.811 1370.73 292.445 1370.71 295.513V320.519H1359.82V297.456C1359.84 295.036 1359.23 293.152 1357.98 291.805C1356.75 290.459 1355.03 289.786 1352.82 289.786C1351.33 289.786 1350.02 290.101 1348.88 290.732C1347.75 291.362 1346.87 292.283 1346.22 293.493C1345.59 294.686 1345.27 296.127 1345.25 297.814ZM1400.18 281.246V289.428H1376.53V281.246H1400.18ZM1381.89 271.837H1392.79V308.45C1392.79 309.456 1392.94 310.24 1393.25 310.803C1393.55 311.348 1393.98 311.732 1394.53 311.953C1395.09 312.175 1395.74 312.286 1396.47 312.286C1396.98 312.286 1397.49 312.243 1398 312.158C1398.51 312.055 1398.91 311.979 1399.18 311.928L1400.89 320.033C1400.35 320.203 1399.58 320.399 1398.59 320.621C1397.6 320.859 1396.4 321.004 1394.99 321.055C1392.36 321.158 1390.06 320.808 1388.08 320.007C1386.12 319.206 1384.6 317.962 1383.51 316.274C1382.41 314.587 1381.88 312.456 1381.89 309.882V271.837ZM1407.27 320.519V281.246H1417.65V288.175H1418.11C1418.93 285.874 1420.29 284.058 1422.2 282.729C1424.11 281.399 1426.4 280.734 1429.05 280.734C1431.75 280.734 1434.04 281.408 1435.93 282.754C1437.82 284.084 1439.09 285.891 1439.72 288.175H1440.13C1440.93 285.925 1442.38 284.127 1444.47 282.78C1446.59 281.416 1449.08 280.734 1451.96 280.734C1455.63 280.734 1458.6 281.902 1460.89 284.237C1463.19 286.555 1464.34 289.845 1464.34 294.107V320.519H1453.47V296.254C1453.47 294.073 1452.89 292.436 1451.73 291.345C1450.57 290.254 1449.13 289.709 1447.39 289.709C1445.41 289.709 1443.87 290.34 1442.76 291.601C1441.65 292.845 1441.1 294.49 1441.1 296.536V320.519H1430.54V296.024C1430.54 294.098 1429.98 292.564 1428.88 291.422C1427.79 290.28 1426.34 289.709 1424.55 289.709C1423.34 289.709 1422.25 290.016 1421.28 290.629C1420.33 291.226 1419.57 292.07 1419.01 293.161C1418.44 294.234 1418.16 295.496 1418.16 296.945V320.519H1407.27ZM1483.83 268.155V320.519H1472.94V268.155H1483.83Z" fill="#2F9E44"/>
<path d="M1219.47 592.29H1279.8V599.85H1219.47V592.29ZM1249.49 603.522C1256.69 603.522 1262.35 604.578 1266.48 606.69C1270.61 608.802 1272.67 611.826 1272.67 615.762C1272.67 619.65 1270.61 622.65 1266.48 624.762C1262.35 626.874 1256.69 627.93 1249.49 627.93C1242.29 627.93 1236.63 626.874 1232.5 624.762C1228.42 622.65 1226.38 619.65 1226.38 615.762C1226.38 611.826 1228.42 608.802 1232.5 606.69C1236.63 604.578 1242.29 603.522 1249.49 603.522ZM1249.49 610.722C1246.51 610.722 1244.02 610.914 1242 611.298C1240.03 611.682 1238.55 612.234 1237.54 612.954C1236.53 613.674 1236.03 614.61 1236.03 615.762C1236.03 616.866 1236.53 617.802 1237.54 618.57C1238.55 619.29 1240.03 619.842 1242 620.226C1244.02 620.562 1246.51 620.73 1249.49 620.73C1252.47 620.73 1254.94 620.562 1256.91 620.226C1258.92 619.842 1260.43 619.29 1261.44 618.57C1262.45 617.802 1262.95 616.866 1262.95 615.762C1262.95 614.61 1262.45 613.674 1261.44 612.954C1260.43 612.234 1258.92 611.682 1256.91 611.298C1254.94 610.914 1252.47 610.722 1249.49 610.722ZM1249.63 562.626C1254.53 562.626 1258.78 563.154 1262.38 564.21C1266.03 565.266 1268.83 566.778 1270.8 568.746C1272.82 570.666 1273.83 572.994 1273.83 575.73C1273.83 578.418 1272.82 580.746 1270.8 582.714C1268.83 584.634 1266.03 586.146 1262.38 587.25C1258.78 588.306 1254.53 588.834 1249.63 588.834C1244.79 588.834 1240.54 588.306 1236.89 587.25C1233.29 586.146 1230.48 584.634 1228.47 582.714C1226.5 580.746 1225.51 578.418 1225.51 575.73C1225.51 572.994 1226.5 570.666 1228.47 568.746C1230.48 566.778 1233.29 565.266 1236.89 564.21C1240.54 563.154 1244.79 562.626 1249.63 562.626ZM1249.63 569.97C1246.66 569.97 1244.09 570.186 1241.93 570.618C1239.77 571.05 1238.14 571.698 1237.03 572.562C1235.98 573.378 1235.45 574.434 1235.45 575.73C1235.45 576.978 1235.98 578.034 1237.03 578.898C1238.14 579.714 1239.77 580.338 1241.93 580.77C1244.09 581.202 1246.66 581.418 1249.63 581.418C1252.71 581.418 1255.3 581.202 1257.41 580.77C1259.52 580.338 1261.13 579.714 1262.23 578.898C1263.34 578.034 1263.89 576.978 1263.89 575.73C1263.89 574.434 1263.34 573.378 1262.23 572.562C1261.13 571.698 1259.52 571.05 1257.41 570.618C1255.3 570.186 1252.71 569.97 1249.63 569.97ZM1328.61 561.186H1338.19V596.898H1328.61V561.186ZM1335.6 575.586H1347.05V583.362H1335.6V575.586ZM1288.22 587.754H1293.77C1298.61 587.754 1302.74 587.706 1306.15 587.61C1309.61 587.466 1312.68 587.25 1315.37 586.962C1318.1 586.674 1320.79 586.242 1323.43 585.666L1324.37 593.226C1321.68 593.85 1318.92 594.33 1316.09 594.666C1313.3 594.954 1310.13 595.17 1306.58 595.314C1303.03 595.41 1298.76 595.458 1293.77 595.458H1288.22V587.754ZM1288.22 565.218H1317.89V572.778H1297.8V592.866H1288.22V565.218ZM1294.7 600.138H1304.21V606.258H1328.76V600.138H1338.19V627.138H1294.7V600.138ZM1304.21 613.602V619.434H1328.76V613.602H1304.21Z" fill="#2F9E44"/>
<path d="M496.369 243.627C525.529 241.127 557.089 251.367 585.149 262.507C613.229 273.627 642.229 290.847 664.809 310.367C687.369 329.887 706.529 354.627 720.569 379.647C734.589 404.647 743.569 432.067 748.929 460.427C754.309 488.807 757.249 521.327 752.789 549.867C748.309 578.387 736.169 606.347 722.129 631.627C708.069 656.927 690.669 682.327 668.549 701.607C646.409 720.867 617.229 736.007 589.349 747.307C561.489 758.587 531.529 766.467 501.349 769.347C471.189 772.207 437.469 770.967 408.329 764.507C379.189 758.067 351.909 745.887 326.509 730.627C301.109 715.387 274.689 695.347 255.889 673.007C237.069 650.687 223.329 624.147 213.669 596.647C203.989 569.147 198.609 536.987 197.909 508.047C197.209 479.087 200.409 449.647 209.449 422.927C218.489 396.227 233.809 370.387 252.149 347.827C270.509 325.247 294.269 303.667 319.509 287.487C344.729 271.307 372.069 258.147 403.549 250.747C435.029 243.327 489.889 242.987 508.409 243.067C526.929 243.127 515.709 246.647 514.689 251.127M380.029 261.087C405.769 248.067 440.969 244.167 471.269 243.307C501.549 242.467 533.009 247.027 561.769 255.987C590.529 264.927 619.249 279.567 643.789 297.047C668.329 314.527 691.769 337.667 709.009 360.847C726.269 384.047 739.749 408.727 747.289 436.207C754.829 463.707 756.189 497.047 754.229 525.827C752.289 554.607 747.269 582.407 735.569 608.887C723.869 635.367 704.469 663.627 684.029 684.727C663.589 705.807 639.189 721.307 612.969 735.447C586.729 749.567 556.249 763.407 526.629 769.507C496.989 775.587 464.869 776.647 435.169 771.987C405.489 767.327 375.529 755.527 348.489 741.587C321.449 727.647 293.829 709.287 272.949 688.347C252.069 667.387 236.169 641.187 223.249 615.887C210.309 590.587 198.749 564.687 195.349 536.587C191.929 508.487 195.649 475.367 202.769 447.267C209.889 419.167 222.229 392.607 238.089 367.987C253.949 343.367 274.089 318.147 297.929 299.527C321.769 280.907 366.789 262.387 381.109 256.267C395.429 250.147 382.869 258.727 383.849 262.827" fill="#FFEC99"/>
<path d="M594.869 265.987C622.569 273.607 646.149 296.127 668.109 316.447C690.069 336.767 712.249 362.527 726.609 387.867C740.969 413.207 750.369 440.127 754.249 468.507C758.149 496.907 755.929 529.967 749.909 558.207C743.889 586.427 733.509 613.367 718.149 637.867C702.769 662.367 680.809 686.147 657.689 705.147C634.589 724.167 607.369 740.847 579.509 751.907C551.629 762.987 520.549 770.187 490.449 771.567C460.349 772.967 427.629 768.247 398.909 760.227C370.189 752.227 342.669 739.387 318.109 723.467C293.549 707.547 269.809 687.387 251.509 664.747C233.209 642.107 217.369 615.147 208.249 587.587C199.149 560.027 196.029 528.487 196.829 499.407C197.629 470.347 202.809 439.907 213.029 413.167C223.269 386.407 239.069 360.867 258.229 338.907C277.409 316.927 301.869 296.547 328.029 281.307C354.189 266.047 385.389 253.547 415.229 247.407C445.049 241.247 475.349 239.987 507.049 244.427C538.749 248.867 587.369 267.367 605.389 274.027C623.409 280.667 616.809 280.267 615.189 284.287M548.629 252.847C578.029 255.687 606.609 268.947 631.349 284.647C656.069 300.347 678.449 324.287 696.949 347.047C715.449 369.807 732.689 394.327 742.349 421.187C751.989 448.027 755.129 478.727 754.869 508.087C754.589 537.447 750.529 569.587 740.709 597.347C730.889 625.087 714.709 652.107 695.929 674.647C677.149 697.167 653.289 717.307 628.049 732.527C602.789 747.747 574.209 759.607 544.429 765.947C514.649 772.267 479.789 773.227 449.349 770.507C418.889 767.787 389.609 761.347 361.729 749.647C333.829 737.967 304.309 720.047 282.009 700.327C259.709 680.607 241.369 656.647 227.949 631.367C214.529 606.087 205.989 577.067 201.509 548.627C197.029 520.207 196.149 488.567 201.049 460.807C205.949 433.067 216.049 407.607 230.909 382.127C245.749 356.647 267.829 327.387 290.149 307.947C312.469 288.507 337.609 276.547 364.849 265.527C392.069 254.487 423.009 243.947 453.549 241.767C484.089 239.587 532.969 249.747 548.049 252.447C563.129 255.147 545.649 254.327 544.029 257.947" stroke="#F08C00" stroke-width="8" stroke-linecap="round"/>
<path d="M378.31 459.214H387.382V500.182H378.31V459.214ZM365.566 460.366H374.494V500.038H365.566V460.366ZM355.774 491.758H369.166V498.022H355.774V491.758ZM342.31 487.078H351.454V499.822H342.31V487.078ZM330.142 490.966L329.278 483.838C331.438 483.838 333.886 483.838 336.622 483.838C339.406 483.79 342.31 483.718 345.334 483.622C348.358 483.478 351.358 483.286 354.334 483.046C357.358 482.806 360.214 482.47 362.902 482.038L363.55 488.374C359.902 489.19 356.038 489.79 351.958 490.174C347.926 490.51 343.99 490.726 340.15 490.822C336.358 490.918 333.022 490.966 330.142 490.966ZM339.934 502.342H349.438V506.734H377.95V502.342H387.382V525.166H339.934V502.342ZM349.438 513.79V517.75H377.95V513.79H349.438ZM346.558 461.374C350.926 461.374 354.454 462.286 357.142 464.11C359.83 465.934 361.174 468.358 361.174 471.382C361.174 474.406 359.83 476.83 357.142 478.654C354.454 480.478 350.926 481.39 346.558 481.39C342.238 481.39 338.734 480.478 336.046 478.654C333.358 476.83 332.014 474.406 332.014 471.382C332.014 468.358 333.358 465.934 336.046 464.11C338.734 462.286 342.238 461.374 346.558 461.374ZM346.558 467.926C344.734 467.926 343.27 468.214 342.166 468.79C341.062 469.366 340.51 470.23 340.51 471.382C340.51 472.534 341.062 473.398 342.166 473.974C343.27 474.55 344.734 474.838 346.558 474.838C348.382 474.838 349.846 474.55 350.95 473.974C352.054 473.398 352.606 472.534 352.606 471.382C352.606 470.23 352.054 469.366 350.95 468.79C349.846 468.214 348.382 467.926 346.558 467.926ZM461.352 459.214H470.424V525.886H461.352V459.214ZM441.768 483.478H450.696V491.83H441.768V483.478ZM448.104 460.438H457.032V522.718H448.104V460.438ZM413.04 466.702H443.424V474.334H413.04V466.702ZM412.968 510.766L411.96 502.918C414.024 502.918 416.4 502.918 419.088 502.918C421.776 502.87 424.584 502.798 427.512 502.702C430.44 502.558 433.344 502.39 436.224 502.198C439.152 501.958 441.888 501.67 444.432 501.334L445.008 508.246C441.6 509.014 437.928 509.59 433.992 509.974C430.056 510.31 426.24 510.526 422.544 510.622C418.896 510.718 415.704 510.766 412.968 510.766ZM417.144 471.526H425.784V505.006H417.144V471.526ZM430.608 471.526H439.176V505.006H430.608V471.526ZM524.563 459.07H534.139V525.958H524.563V459.07ZM498.211 463.75C501.619 463.75 504.643 464.734 507.283 466.702C509.923 468.622 511.987 471.382 513.475 474.982C515.011 478.534 515.779 482.734 515.779 487.582C515.779 492.478 515.011 496.726 513.475 500.326C511.987 503.878 509.923 506.638 507.283 508.606C504.643 510.526 501.619 511.486 498.211 511.486C494.851 511.486 491.851 510.526 489.211 508.606C486.571 506.638 484.483 503.878 482.947 500.326C481.459 496.726 480.715 492.478 480.715 487.582C480.715 482.734 481.459 478.534 482.947 474.982C484.483 471.382 486.571 468.622 489.211 466.702C491.851 464.734 494.851 463.75 498.211 463.75ZM498.211 472.462C496.579 472.462 495.139 473.038 493.891 474.19C492.643 475.342 491.659 477.046 490.939 479.302C490.267 481.51 489.931 484.27 489.931 487.582C489.931 490.846 490.267 493.63 490.939 495.934C491.659 498.19 492.643 499.894 493.891 501.046C495.139 502.198 496.579 502.774 498.211 502.774C499.891 502.774 501.355 502.198 502.603 501.046C503.851 499.894 504.811 498.19 505.483 495.934C506.203 493.63 506.563 490.846 506.563 487.582C506.563 484.27 506.203 481.51 505.483 479.302C504.811 477.046 503.851 475.342 502.603 474.19C501.355 473.038 499.891 472.462 498.211 472.462ZM561.133 469.726H568.765V477.214C568.765 481.054 568.357 484.822 567.541 488.518C566.773 492.214 565.597 495.694 564.013 498.958C562.477 502.174 560.533 505.03 558.181 507.526C555.829 509.974 553.093 511.918 549.973 513.358L544.501 505.798C547.285 504.502 549.709 502.822 551.773 500.758C553.885 498.694 555.613 496.39 556.957 493.846C558.349 491.254 559.381 488.542 560.053 485.71C560.773 482.83 561.133 479.998 561.133 477.214V469.726ZM563.221 469.726H570.781V477.214C570.781 479.854 571.117 482.542 571.789 485.278C572.509 487.966 573.541 490.534 574.885 492.982C576.229 495.382 577.933 497.542 579.997 499.462C582.061 501.382 584.509 502.918 587.341 504.07L582.085 511.702C578.917 510.31 576.157 508.438 573.805 506.086C571.453 503.734 569.485 501.022 567.901 497.95C566.317 494.878 565.141 491.59 564.373 488.086C563.605 484.534 563.221 480.91 563.221 477.214V469.726ZM547.165 465.55H584.605V473.47H547.165V465.55ZM590.797 459.214H600.373V525.886H590.797V459.214Z" fill="#F08C00"/>
</g>
<defs>
<clipPath id="clip0_2_26">
<rect width="3072.36" height="922.277" fill="white"/>
</clipPath>
</defs>
</svg>
